<?xml version="1.0" encoding="utf-8"?>
<!-- Generator: Adobe Illustrator 24.0.3, SVG Export Plug-In . SVG Version: 6.00 Build 0)  -->
<svg version="1.1" id="圖層_1" xmlns="http://www.w3.org/2000/svg" xmlns:xlink="http://www.w3.org/1999/xlink" x="0px" y="0px"
	 viewBox="0 0 392 75" style="enable-background:new 0 0 392 75;" xml:space="preserve">
<style type="text/css">
	.st0{fill:#FFFFFF;}
	.st1{fill:#D10023;}
	.st2{fill:url(#SVGID_1_);}
</style>
<g>
	<path class="st0" d="M106.7,43.1c0,1.8-0.4,3.3-1.4,4.7s-2.2,2.5-4,3.3c-1.7,0.8-3.8,1.2-6.2,1.2c-2.9,0-5.2-0.5-7.1-1.6
		c-1.3-0.8-2.4-1.8-3.2-3.1s-1.2-2.6-1.2-3.8c0-0.7,0.2-1.3,0.7-1.8s1.1-0.8,1.9-0.8c0.6,0,1.2,0.2,1.6,0.6c0.4,0.4,0.8,1,1.1,1.8
		c0.4,0.9,0.8,1.7,1.2,2.3s1,1.1,1.8,1.5S93.7,48,95,48c1.7,0,3.2-0.4,4.2-1.2s1.6-1.8,1.6-3c0-1-0.3-1.7-0.9-2.3s-1.3-1.1-2.3-1.4
		s-2.2-0.7-3.7-1c-2.1-0.5-3.8-1.1-5.2-1.7s-2.5-1.5-3.3-2.7s-1.2-2.5-1.2-4.2c0-1.6,0.4-3,1.3-4.2s2.1-2.2,3.8-2.9s3.6-1,5.8-1
		c1.8,0,3.3,0.2,4.6,0.7c1.3,0.4,2.4,1,3.2,1.8s1.5,1.5,1.9,2.3s0.6,1.6,0.6,2.4c0,0.7-0.2,1.3-0.7,1.9s-1.1,0.8-1.8,0.8
		c-0.7,0-1.2-0.2-1.5-0.5s-0.7-0.9-1.1-1.6c-0.5-1.1-1.2-2-1.9-2.6c-0.7-0.6-1.9-0.9-3.6-0.9c-1.5,0-2.7,0.3-3.7,1
		c-0.9,0.7-1.4,1.5-1.4,2.4c0,0.6,0.2,1.1,0.5,1.5s0.8,0.8,1.3,1.1c0.6,0.3,1.1,0.5,1.7,0.7s1.5,0.4,2.8,0.8
		c1.6,0.4,3.1,0.8,4.4,1.3s2.5,1,3.4,1.7s1.7,1.5,2.2,2.5C106.4,40.4,106.7,41.7,106.7,43.1z"/>
	<path class="st0" d="M130.8,27.4h-13.2v7.1h12.2c0.9,0,1.6,0.2,2,0.6c0.4,0.4,0.7,0.9,0.7,1.6s-0.2,1.2-0.6,1.6
		c-0.4,0.4-1.1,0.6-2,0.6h-12.2v8.2h13.7c0.9,0,1.6,0.2,2.1,0.6s0.7,1,0.7,1.7s-0.2,1.2-0.7,1.7c-0.5,0.4-1.2,0.6-2.1,0.6h-16
		c-1.3,0-2.2-0.3-2.8-0.8c-0.6-0.6-0.8-1.5-0.8-2.8V26.4c0-0.8,0.1-1.5,0.4-2.1c0.2-0.5,0.6-0.9,1.2-1.2c0.5-0.2,1.2-0.4,2.1-0.4
		H131c0.9,0,1.6,0.2,2.1,0.6s0.7,1,0.7,1.6c0,0.7-0.2,1.2-0.7,1.6C132.4,27.1,131.8,27.4,130.8,27.4z"/>
	<path class="st0" d="M143,26.2l6.6,19.5l6.6-19.6c0.3-1,0.6-1.7,0.8-2.1s0.5-0.8,0.9-1.1c0.4-0.3,0.9-0.5,1.6-0.5
		c0.5,0,1,0.1,1.4,0.4s0.8,0.6,1,1s0.4,0.8,0.4,1.3c0,0.3,0,0.6-0.1,0.9s-0.2,0.7-0.3,1s-0.2,0.7-0.4,1l-7,19
		c-0.2,0.7-0.5,1.4-0.8,2.1c-0.2,0.7-0.5,1.2-0.9,1.7s-0.8,0.9-1.3,1.2s-1.2,0.5-2,0.5s-1.5-0.2-2-0.5c-0.6-0.3-1-0.7-1.3-1.2
		s-0.6-1.1-0.9-1.7c-0.2-0.7-0.5-1.3-0.8-2.1l-6.9-19c-0.1-0.3-0.2-0.7-0.4-1c-0.1-0.3-0.2-0.7-0.3-1.1s-0.1-0.7-0.1-1
		c0-0.7,0.3-1.3,0.8-1.8s1.2-0.8,2-0.8c1,0,1.7,0.3,2.1,0.9C142.2,23.9,142.6,24.8,143,26.2z"/>
	<path class="st0" d="M185.8,27.4h-13.2v7.1h12.2c0.9,0,1.6,0.2,2,0.6c0.4,0.4,0.7,0.9,0.7,1.6s-0.2,1.2-0.6,1.6
		c-0.4,0.4-1.1,0.6-2,0.6h-12.2v8.2h13.7c0.9,0,1.6,0.2,2.1,0.6s0.7,1,0.7,1.7s-0.2,1.2-0.7,1.7c-0.5,0.4-1.2,0.6-2.1,0.6h-16
		c-1.3,0-2.2-0.3-2.8-0.8s-0.8-1.5-0.8-2.8V26.4c0-0.8,0.1-1.5,0.4-2.1c0.2-0.5,0.6-0.9,1.2-1.2c0.5-0.2,1.2-0.4,2.1-0.4H186
		c0.9,0,1.6,0.2,2.1,0.6s0.7,1,0.7,1.6c0,0.7-0.2,1.2-0.7,1.6C187.4,27.1,186.7,27.4,185.8,27.4z"/>
	<path class="st0" d="M201.4,25.9L212.7,43V25.7c0-1.1,0.2-2,0.7-2.5s1.1-0.8,1.9-0.8c0.9,0,1.5,0.3,2,0.8s0.7,1.4,0.7,2.5v22.8
		c0,2.5-1.1,3.8-3.2,3.8c-0.5,0-1-0.1-1.4-0.2c-0.4-0.2-0.8-0.4-1.2-0.7s-0.7-0.7-1-1.2c-0.3-0.4-0.6-0.9-0.9-1.4l-11-16.9v17
		c0,1.1-0.3,2-0.8,2.5c-0.5,0.6-1.2,0.8-2,0.8s-1.5-0.3-2-0.9s-0.8-1.4-0.8-2.5V26.6c0-1,0.1-1.7,0.3-2.2c0.2-0.6,0.7-1.1,1.2-1.5
		c0.6-0.4,1.2-0.6,1.9-0.6c0.5,0,1,0.1,1.4,0.3s0.7,0.4,1,0.7s0.6,0.7,0.9,1.1C200.8,24.9,201.1,25.4,201.4,25.9z"/>
	<path class="st0" d="M259.4,42.7c0,0.9-0.2,1.9-0.7,3s-1.2,2.1-2.1,3.2c-1,1-2.2,1.9-3.7,2.5c-1.5,0.7-3.3,1-5.3,1
		c-1.5,0-2.9-0.2-4.2-0.4c-1.2-0.3-2.4-0.7-3.4-1.4c-1-0.6-2-1.4-2.8-2.4c-0.8-0.9-1.4-1.9-2-3.1c-0.5-1.1-0.9-2.3-1.2-3.6
		s-0.4-2.6-0.4-4.1c0-2.3,0.3-4.4,1-6.3c0.7-1.9,1.6-3.4,2.9-4.7s2.8-2.3,4.5-3s3.5-1,5.4-1c2.4,0,4.4,0.5,6.3,1.4s3.2,2.1,4.2,3.5
		s1.5,2.7,1.5,3.9c0,0.7-0.2,1.3-0.7,1.8s-1,0.8-1.7,0.8c-0.8,0-1.3-0.2-1.7-0.5c-0.4-0.4-0.8-1-1.3-1.8c-0.8-1.4-1.7-2.5-2.7-3.2
		s-2.3-1.1-3.8-1.1c-2.4,0-4.3,0.9-5.8,2.8c-1.4,1.8-2.1,4.4-2.1,7.8c0,2.3,0.3,4.1,0.9,5.6c0.6,1.5,1.5,2.6,2.7,3.3
		s2.5,1.1,4.1,1.1c1.7,0,3.1-0.4,4.3-1.3s2.1-2.1,2.6-3.7c0.2-0.8,0.6-1.4,0.9-1.9s1-0.7,1.8-0.7c0.7,0,1.3,0.2,1.8,0.7
		C259.2,41.3,259.4,41.9,259.4,42.7z"/>
	<path class="st0" d="M283.3,48.5l-1.4-3.6h-11.8l-1.4,3.7c-0.5,1.5-1,2.4-1.4,2.9s-1,0.8-1.9,0.8c-0.7,0-1.4-0.3-2-0.8
		s-0.9-1.2-0.9-1.8c0-0.4,0.1-0.8,0.2-1.2s0.4-1,0.6-1.8l7.4-18.8c0.2-0.5,0.5-1.2,0.8-2s0.6-1.4,1-1.9c0.3-0.5,0.8-0.9,1.3-1.2
		s1.2-0.5,2-0.5s1.5,0.2,2,0.5s1,0.7,1.3,1.2s0.6,1,0.9,1.6s0.5,1.3,0.9,2.2l7.6,18.7c0.6,1.4,0.9,2.5,0.9,3.1
		c0,0.7-0.3,1.3-0.8,1.8c-0.6,0.6-1.2,0.8-2,0.8c-0.5,0-0.9-0.1-1.2-0.2c-0.3-0.2-0.6-0.4-0.8-0.7s-0.5-0.7-0.7-1.3
		C283.7,49.5,283.5,49,283.3,48.5z M271.7,40.5h8.7l-4.4-12L271.7,40.5z"/>
	<path class="st0" d="M316,43.1c0,1.8-0.5,3.3-1.4,4.7s-2.2,2.5-4,3.3s-3.8,1.2-6.2,1.2c-2.9,0-5.2-0.5-7.1-1.6
		c-1.3-0.8-2.4-1.8-3.2-3.1s-1.2-2.6-1.2-3.8c0-0.7,0.2-1.3,0.7-1.8s1.1-0.8,1.9-0.8c0.6,0,1.1,0.2,1.6,0.6c0.4,0.4,0.8,1,1.1,1.8
		c0.4,0.9,0.8,1.7,1.2,2.3c0.4,0.6,1,1.1,1.8,1.5s1.8,0.6,3.1,0.6c1.7,0,3.2-0.4,4.2-1.2s1.6-1.8,1.6-3c0-1-0.3-1.7-0.9-2.3
		s-1.4-1.1-2.3-1.4s-2.2-0.7-3.7-1c-2.1-0.5-3.8-1.1-5.2-1.7c-1.4-0.7-2.5-1.5-3.4-2.7c-0.8-1.1-1.2-2.5-1.2-4.2
		c0-1.6,0.4-3,1.3-4.2s2.1-2.2,3.8-2.9s3.6-1,5.8-1c1.8,0,3.3,0.2,4.6,0.7c1.3,0.4,2.4,1,3.2,1.8s1.5,1.5,1.9,2.3s0.6,1.6,0.6,2.4
		c0,0.7-0.2,1.3-0.7,1.9s-1.1,0.8-1.9,0.8c-0.7,0-1.2-0.2-1.5-0.5c-0.4-0.3-0.7-0.9-1.1-1.6c-0.5-1.1-1.2-2-1.9-2.6
		c-0.7-0.6-1.9-0.9-3.6-0.9c-1.5,0-2.7,0.3-3.7,1c-0.9,0.7-1.4,1.5-1.4,2.4c0,0.6,0.2,1.1,0.5,1.5s0.8,0.8,1.3,1.1s1.1,0.5,1.7,0.7
		s1.5,0.4,2.8,0.8c1.6,0.4,3.1,0.8,4.5,1.3c1.3,0.5,2.5,1,3.4,1.7s1.7,1.5,2.2,2.5C315.7,40.4,316,41.7,316,43.1z"/>
	<path class="st0" d="M321.2,48.7V25.9c0-1.2,0.3-2.1,0.8-2.7s1.2-0.9,2.1-0.9s1.6,0.3,2.1,0.9s0.8,1.5,0.8,2.7v22.9
		c0,1.2-0.3,2.1-0.8,2.7c-0.5,0.6-1.3,0.9-2.1,0.9c-0.9,0-1.5-0.3-2.1-0.9C321.5,50.8,321.2,49.9,321.2,48.7z"/>
	<path class="st0" d="M341.3,25.9L352.6,43V25.7c0-1.1,0.2-2,0.7-2.5s1.1-0.8,2-0.8s1.5,0.3,2,0.8s0.7,1.4,0.7,2.5v22.8
		c0,2.5-1.1,3.8-3.2,3.8c-0.5,0-1-0.1-1.4-0.2c-0.4-0.2-0.8-0.4-1.2-0.7s-0.7-0.7-1-1.2s-0.6-0.9-1-1.4l-11-16.9v17
		c0,1.1-0.3,2-0.8,2.5c-0.5,0.6-1.2,0.8-2,0.8s-1.5-0.3-2-0.9s-0.8-1.4-0.8-2.5V26.6c0-1,0.1-1.7,0.3-2.2c0.2-0.6,0.7-1.1,1.2-1.5
		c0.6-0.4,1.2-0.6,1.9-0.6c0.5,0,1,0.1,1.4,0.3c0.4,0.2,0.7,0.4,1,0.7s0.6,0.7,0.9,1.1C340.7,24.9,341,25.4,341.3,25.9z"/>
	<path class="st0" d="M377.3,22.3c3,0,5.6,0.6,7.8,1.8s3.8,3,4.9,5.2s1.7,4.9,1.7,7.9c0,2.2-0.3,4.3-0.9,6.1s-1.5,3.4-2.7,4.8
		c-1.2,1.3-2.7,2.4-4.5,3.1c-1.8,0.7-3.8,1.1-6.1,1.1c-2.3,0-4.3-0.4-6.1-1.1c-1.8-0.7-3.3-1.8-4.5-3.1s-2.1-2.9-2.7-4.8
		c-0.6-1.9-0.9-3.9-0.9-6.1c0-2.2,0.3-4.3,1-6.1c0.6-1.9,1.6-3.4,2.8-4.8s2.7-2.3,4.4-3C373.1,22.7,375.1,22.3,377.3,22.3z
		 M385.6,37.2c0-2.1-0.3-4-1-5.5c-0.7-1.6-1.7-2.7-2.9-3.5c-1.3-0.8-2.7-1.2-4.4-1.2c-1.2,0-2.3,0.2-3.3,0.7s-1.9,1.1-2.6,1.9
		s-1.3,1.9-1.7,3.2c-0.4,1.3-0.6,2.8-0.6,4.4c0,1.7,0.2,3.1,0.6,4.5c0.4,1.3,1,2.4,1.8,3.3c0.8,0.9,1.6,1.5,2.6,2
		c1,0.4,2.1,0.7,3.2,0.7c1.5,0,2.9-0.4,4.1-1.1c1.3-0.8,2.3-1.9,3-3.5C385.3,41.5,385.6,39.5,385.6,37.2z"/>
</g>
<g>
	<g>
		<path class="st1" d="M12.8,67.3L12.8,67.3c2.6,1.7,6.1,1,7.8-1.6l35-53.7c1.7-2.6,1.7-5.8,0.1-8.4c-1.5-2.5-4.4-3.9-7.3-3.8
			L7.5,2.2C4.8,2.3,2.4,3.9,1,6.3c-1.4,2.5-1.2,5.5,0.2,7.9l9.2,15.9c1.6,2.7,5,3.6,7.7,2.1l0,0c2.7-1.6,3.6-5,2.1-7.7l-6.6-11.3
			l28.9-1.7l-31.3,48C9.5,62.1,10.2,65.6,12.8,67.3z"/>
	</g>
	<path class="st1" d="M1,6.3c1.3-2.4,3.7-3.9,6.5-4.1l40.8-2.4c2.9-0.2,5.8,1.2,7.3,3.8c1.6,2.6,1.5,5.9-0.1,8.4l-6.4,9.8l0,0
		c3-11.3-6.7-10.3-6.7-10.3l-28.9,1.7L20,24.5c1.6,2.7,0.6,6.1-2.1,7.7c-2.7,1.6-6.1,0.6-7.7-2.1l-9-15.9C-0.2,11.8-0.3,8.7,1,6.3z"
		/>
	<g>
		<path class="st0" d="M35.8,64.6c0.4,0.2,0.7,0.6,1,1s0.5,1,0.7,1.7s0.2,1.3,0,2.1c-0.1,0.8-0.5,1.5-1,2.3
			c-0.4,0.6-0.8,1.1-1.2,1.5s-0.9,0.8-1.4,1s-1.1,0.4-1.7,0.5c-0.5,0.1-1.1,0.1-1.7,0s-1.2-0.2-1.7-0.4c-0.6-0.2-1.1-0.5-1.7-0.9
			c-0.9-0.6-1.6-1.3-2.2-2c-0.5-0.7-0.9-1.5-1.1-2.4s-0.2-1.7,0-2.5s0.5-1.7,1-2.4c0.6-0.9,1.3-1.6,2.2-2.1s1.6-0.7,2.5-0.8
			c0.8,0,1.4,0.1,1.9,0.4c0.3,0.2,0.4,0.4,0.5,0.7s0,0.6-0.1,0.9c-0.2,0.3-0.4,0.5-0.6,0.5c-0.2,0.1-0.6,0.1-1,0
			c-0.8-0.1-1.4,0-2,0.2c-0.5,0.2-1,0.6-1.4,1.2c-0.6,0.9-0.8,1.9-0.4,3s1.2,2,2.5,2.8c0.9,0.6,1.7,0.9,2.5,1.1
			c0.8,0.1,1.4,0.1,2-0.2s1.1-0.7,1.5-1.3c0.4-0.7,0.6-1.3,0.6-2s-0.3-1.3-0.8-2c-0.2-0.3-0.4-0.6-0.5-0.8c-0.1-0.3,0-0.6,0.2-0.9
			s0.4-0.4,0.8-0.5C35.2,64.4,35.5,64.4,35.8,64.6z"/>
		<path class="st0" d="M44.2,56.8l-1.8-0.4l-3,4.6l1.1,1.5c0.4,0.6,0.7,1,0.8,1.3c0.1,0.3,0,0.6-0.2,0.9s-0.5,0.5-0.8,0.6
			c-0.4,0.1-0.7,0-0.9-0.1S39.1,65,39,64.8c-0.1-0.2-0.3-0.4-0.5-0.7L33,56.3c-0.2-0.2-0.3-0.5-0.6-0.8c-0.2-0.3-0.4-0.6-0.5-0.9
			c-0.1-0.3-0.2-0.5-0.1-0.8s0.1-0.6,0.3-0.9c0.2-0.3,0.5-0.5,0.7-0.7s0.5-0.2,0.8-0.2s0.6,0,0.8,0.1s0.7,0.1,1.1,0.2l9.3,1.8
			c0.7,0.1,1.2,0.3,1.5,0.5s0.4,0.4,0.5,0.8c0.1,0.4,0,0.7-0.2,1c-0.1,0.2-0.2,0.3-0.4,0.4c-0.2,0.1-0.3,0.1-0.5,0.2
			c-0.2,0-0.4,0-0.7,0C44.7,56.9,44.5,56.8,44.2,56.8z M38.1,59.3l2.2-3.4l-5.8-1.3L38.1,59.3z"/>
		<path class="st0" d="M50.5,42.6c0.7,0.5,1.2,1,1.5,1.8c0.3,0.7,0.4,1.5,0.3,2.4c-0.1,0.9-0.5,1.8-1.1,2.7
			c-0.7,1.1-1.5,1.9-2.5,2.4c-0.6,0.3-1.3,0.5-2,0.5s-1.3-0.2-1.8-0.5c-0.3-0.2-0.5-0.4-0.5-0.8s0-0.6,0.2-0.9
			c0.2-0.2,0.4-0.4,0.6-0.5s0.6-0.1,1,0c0.5,0.1,0.9,0.1,1.2,0.1s0.7-0.1,1.1-0.3s0.7-0.5,1-1c0.5-0.7,0.7-1.3,0.6-2
			s-0.3-1.1-0.8-1.4c-0.4-0.2-0.8-0.3-1.2-0.3c-0.4,0.1-0.8,0.3-1.1,0.5c-0.4,0.3-0.8,0.7-1.3,1.2c-0.7,0.7-1.4,1.2-2,1.6
			c-0.6,0.4-1.2,0.6-1.9,0.6s-1.3-0.2-2-0.6c-0.6-0.4-1.1-0.9-1.3-1.6c-0.3-0.7-0.3-1.4-0.2-2.2c0.2-0.8,0.5-1.7,1.1-2.5
			c0.5-0.7,0.9-1.2,1.5-1.7c0.5-0.4,1-0.7,1.5-0.8c0.5-0.2,1-0.2,1.4-0.2s0.8,0.2,1.1,0.4s0.5,0.4,0.5,0.8s0,0.7-0.1,0.9
			c-0.2,0.3-0.4,0.4-0.6,0.5c-0.2,0-0.5,0.1-0.9,0c-0.6-0.1-1.1,0-1.5,0.1S41.4,42.3,41,43c-0.4,0.6-0.6,1.2-0.5,1.7
			s0.2,0.9,0.6,1.2c0.2,0.2,0.5,0.2,0.7,0.2s0.5-0.1,0.8-0.2s0.5-0.3,0.7-0.5s0.5-0.5,1-0.9c0.6-0.5,1.1-1,1.6-1.4s1-0.7,1.5-0.9
			s1-0.3,1.5-0.2C49.4,42,49.9,42.2,50.5,42.6z"/>
		<path class="st0" d="M54,41.9L45,36c-0.5-0.3-0.8-0.6-0.8-1s0-0.7,0.2-1s0.5-0.5,0.9-0.6s0.8,0.1,1.3,0.4l9,5.9
			c0.5,0.3,0.8,0.7,0.8,1c0.1,0.4,0,0.7-0.2,1.1c-0.2,0.3-0.5,0.5-0.9,0.6C54.9,42.4,54.5,42.2,54,41.9z"/>
		<path class="st0" d="M50.2,28.2h9.6L53,23.7c-0.4-0.3-0.7-0.6-0.8-0.9s0-0.7,0.2-1s0.5-0.5,0.8-0.6c0.3,0,0.7,0.1,1.2,0.4l9,5.9
			c1,0.6,1.2,1.4,0.7,2.2c-0.1,0.2-0.3,0.4-0.5,0.5s-0.4,0.2-0.6,0.3c-0.2,0.1-0.5,0.1-0.7,0.1s-0.5,0-0.8,0H52l6.7,4.4
			c0.4,0.3,0.7,0.6,0.8,1c0.1,0.3,0,0.7-0.2,1s-0.5,0.5-0.8,0.6c-0.3,0-0.8-0.1-1.2-0.3l-8.8-5.7c-0.4-0.2-0.6-0.5-0.8-0.7
			s-0.2-0.5-0.2-0.9s0.1-0.6,0.3-0.9c0.1-0.2,0.3-0.4,0.5-0.5s0.3-0.2,0.5-0.2s0.4,0,0.7,0C49.7,28.2,49.9,28.2,50.2,28.2z"/>
		<path class="st0" d="M58,13.2c0.8-1.2,1.7-2,2.7-2.6c1-0.5,2.1-0.7,3.3-0.6c1.2,0.1,2.3,0.6,3.5,1.4c0.9,0.6,1.6,1.2,2.2,1.9
			s1,1.5,1.2,2.3s0.2,1.7,0.1,2.5s-0.6,1.8-1.1,2.7c-0.6,0.9-1.2,1.6-2,2.1s-1.5,0.8-2.4,1s-1.7,0.1-2.6-0.2
			c-0.9-0.2-1.8-0.6-2.6-1.2c-0.9-0.6-1.6-1.2-2.2-2c-0.6-0.7-1-1.5-1.2-2.3s-0.2-1.6,0-2.5C57.1,14.9,57.5,14,58,13.2z M66,13.7
			c-0.8-0.5-1.7-0.9-2.4-1c-0.8-0.1-1.5-0.1-2.1,0.2s-1.2,0.8-1.6,1.4c-0.3,0.5-0.5,0.9-0.6,1.4s0,1,0.1,1.5c0.2,0.5,0.4,1,0.8,1.5
			c0.4,0.5,0.9,1,1.6,1.4c0.7,0.4,1.3,0.7,1.9,0.9c0.6,0.2,1.2,0.2,1.8,0.2s1-0.2,1.4-0.5s0.8-0.6,1.1-1.1c0.4-0.6,0.6-1.2,0.6-1.9
			c0-0.7-0.2-1.4-0.6-2.1C67.6,14.9,66.9,14.3,66,13.7z"/>
	</g>
	<linearGradient id="SVGID_1_" gradientUnits="userSpaceOnUse" x1="18.0972" y1="32.0512" x2="8.1722" y2="14.8761">
		<stop  offset="0" style="stop-color:#D10023"/>
		<stop  offset="0.225" style="stop-color:#CC0023"/>
		<stop  offset="0.4848" style="stop-color:#BE0023"/>
		<stop  offset="0.7607" style="stop-color:#A70023"/>
		<stop  offset="1" style="stop-color:#8D0023"/>
	</linearGradient>
	<path class="st2" d="M13.6,13.1l6.6,11.3c1.6,2.7,0.6,6.1-2.1,7.7c-2.7,1.6-6.1,0.6-7.7-2.1l-4-6.9C2.2,12.9,13.6,13.1,13.6,13.1z"
		/>
</g>
<g id="圖層_2_1_">
</g>
</svg>
