<?xml version="1.0" encoding="utf-8"?>
<!-- Generator: Adobe Illustrator 16.0.0, SVG Export Plug-In . SVG Version: 6.00 Build 0)  -->
<!DOCTYPE svg PUBLIC "-//W3C//DTD SVG 1.1//EN" "http://www.w3.org/Graphics/SVG/1.1/DTD/svg11.dtd">
<svg version="1.1" id="圖層_1" xmlns="http://www.w3.org/2000/svg" xmlns:xlink="http://www.w3.org/1999/xlink" x="0px" y="0px"
	 width="384px" height="384px" viewBox="0 0 384 384" enable-background="new 0 0 384 384" xml:space="preserve">
<g>
	<path fill="#FFFFFF" d="M368,208.002H16c-8.832,0-16-7.168-16-16s7.168-16,16-16h352c8.832,0,16,7.168,16,16
		S376.832,208.002,368,208.002z"/>
	<path fill="#FFFFFF" d="M368,85.334H16c-8.832,0-16-7.168-16-16s7.168-16,16-16h352c8.832,0,16,7.168,16,16
		S376.832,85.334,368,85.334z"/>
	<path fill="#FFFFFF" d="M368,330.666H16c-8.832,0-16-7.168-16-16s7.168-16,16-16h352c8.832,0,16,7.168,16,16
		S376.832,330.666,368,330.666z"/>
</g>
</svg>
